# xmcd
#
# Track frame offsets: 
#        150
#        17831
#        30013
#        49306
#        57339
#        67824
#        88207
#        104659
#        117867
#        137659
#        152705
#        163443
#        175353
#        188522
#        199218
#        208816
#        244981
#
# Disc length: 3371 seconds
#
# Revision: 0
# Processed by: cddbd v1.5.2PL0 Copyright (c) Steve Scherf et al.
# Submitted via: ExactAudioCopyFreeDBPlugin 1.0
#
DISCID=f40d2911
DTITLE=Dolly Parton - Country Girl In The Big Apple
DYEAR=2015
DGENRE=Country
TTITLE0=(Your Love Keeps Lifting Me) Higher And Higher
TTITLE1=All I Can Do
TTITLE2=Jolene
TTITLE3=There's No Place Like Home
TTITLE4=My Tennessee Mountain Home
TTITLE5=Do I Ever Cross Your Mind
TTITLE6=Coat Of Many Colours
TTITLE7=Applejack
TTITLE8=Light Of A Clear Blue Morning
TTITLE9=I Will Always Love You
TTITLE10=Getting In My Way
TTITLE11=Me and Little Andy
TTITLE12=How Does It Feel
TTITLE13=Holdin' On To You
TTITLE14=The Seeker
TTITLE15=You Are and I Will Always Love You (Reprise)
TTITLE16=Love Is Like A Butterfly
EXTD=
EXTT0=
EXTT1=
EXTT2=
EXTT3=
EXTT4=
EXTT5=
EXTT6=
EXTT7=
EXTT8=
EXTT9=
EXTT10=
EXTT11=
EXTT12=
EXTT13=
EXTT14=
EXTT15=
EXTT16=
PLAYORDER=
